<svg xmlns="http://www.w3.org/2000/svg" viewBox="0 0 32 32" role="img" aria-label="RENAS">
  <defs>
    <linearGradient id="g" x1="0%" y1="100%" x2="100%" y2="0%">
      <stop offset="0%" stop-color="#0FA978"/>
      <stop offset="100%" stop-color="#39E6B0"/>
    </linearGradient>
  </defs>
  <rect width="32" height="32" rx="7" fill="#090909"/>
  <g transform="translate(1.28, 9.56) scale(0.12)">
    <path d="M 14,88 L 15.48,88.07 L 16.91,88.28 L 18.31,88.58 L 19.69,88.96 L 21.05,89.4 L 22.41,89.85 L 23.75,90.31 L 25.1,90.73 L 26.44,91.09 L 27.77,91.38 L 29.08,91.55 L 30.36,91.59 L 31.6,91.47 L 32.77,91.18 L 33.87,90.73 L 34.93,90.22 L 35.97,89.68 L 36.96,89.11 L 37.93,88.5 L 38.86,87.85 L 39.76,87.18 L 40.62,86.48 L 41.45,85.75 L 42.25,84.99 L 43.02,84.2 L 43.75,83.4 L 44.45,82.57 L 45.13,81.72 L 45.78,80.85 L 46.4,79.97 L 47,79.07 L 47.57,78.15 L 48.13,77.21 L 48.67,76.26 L 49.2,75.3 L 49.71,74.32 L 50.21,73.32 L 50.7,72.31 L 51.18,71.29 L 51.66,70.24 L 52.14,69.19 L 52.61,68.11 L 53.08,67.02 L 53.55,65.91 L 54.02,64.79 L 54.5,63.64 L 54.98,62.48 L 55.47,61.31 L 55.8,60.79 L 56.42,59.69 L 57.07,58.59 L 57.73,57.47 L 58.42,56.35 L 59.12,55.23 L 59.86,54.1 L 60.61,52.97 L 61.39,51.84 L 62.19,50.71 L 63.02,49.59 L 63.88,48.47 L 64.76,47.36 L 65.67,46.26 L 66.61,45.16 L 67.58,44.07 L 68.58,43 L 69.61,41.94 L 70.68,40.89 L 71.77,39.86 L 72.9,38.85 L 74.07,37.85 L 75.27,36.87 L 76.5,35.92 L 77.78,34.99 L 79.09,34.08 L 80.44,33.19 L 81.83,32.33 L 83.26,31.5 L 84.74,30.7 L 86.26,29.92 L 87.82,29.18 L 89.43,28.47 L 91.09,27.8 L 92.8,27.16 L 94.55,26.55 L 96.36,25.99 L 98.22,25.47 L 100.14,24.98 L 102.11,24.54 L 104.13,24.15 L 106.22,23.8 L 108.36,23.5 L 110.57,23.26 L 112.83,23.06 L 115.16,22.92 L 117.55,22.83 L 120,22.8 L 122.45,22.83 L 124.84,22.92 L 127.17,23.06 L 129.43,23.26 L 131.64,23.5 L 133.78,23.8 L 135.87,24.15 L 137.89,24.54 L 139.86,24.98 L 141.78,25.47 L 143.64,25.99 L 145.45,26.55 L 147.2,27.16 L 148.91,27.8 L 150.57,28.47 L 152.18,29.18 L 153.74,29.92 L 155.26,30.7 L 156.74,31.5 L 158.17,32.33 L 159.56,33.19 L 160.91,34.08 L 162.22,34.99 L 163.5,35.92 L 164.73,36.87 L 165.93,37.85 L 167.1,38.85 L 168.23,39.86 L 169.32,40.89 L 170.39,41.94 L 171.42,43 L 172.42,44.07 L 173.39,45.16 L 174.33,46.26 L 175.24,47.36 L 176.12,48.47 L 176.98,49.59 L 177.81,50.71 L 178.61,51.84 L 179.39,52.97 L 180.14,54.1 L 180.88,55.23 L 181.58,56.35 L 182.27,57.47 L 182.93,58.59 L 183.58,59.69 L 184.2,60.79 L 184.81,61.88 L 185.02,62.48 L 185.5,63.64 L 185.98,64.79 L 186.45,65.91 L 186.92,67.02 L 187.39,68.11 L 187.86,69.19 L 188.34,70.24 L 188.82,71.29 L 189.3,72.31 L 189.79,73.32 L 190.29,74.32 L 190.8,75.3 L 191.33,76.26 L 191.87,77.21 L 192.43,78.15 L 193,79.07 L 193.6,79.97 L 194.22,80.85 L 194.87,81.72 L 195.55,82.57 L 196.25,83.4 L 196.98,84.2 L 197.75,84.99 L 198.55,85.75 L 199.38,86.48 L 200.24,87.18 L 201.14,87.85 L 202.07,88.5 L 203.04,89.11 L 204.03,89.68 L 205.07,90.22 L 206.13,90.73 L 207.23,91.18 L 208.4,91.47 L 209.64,91.59 L 210.92,91.55 L 212.23,91.38 L 213.56,91.09 L 214.9,90.73 L 216.25,90.31 L 217.59,89.85 L 218.95,89.4 L 220.31,88.96 L 221.69,88.58 L 223.09,88.28 L 224.52,88.07 L 226,88 L 226,88 L 224.53,87.9 L 223.11,87.62 L 221.77,87.18 L 220.5,86.62 L 219.3,85.95 L 218.19,85.21 L 217.16,84.42 L 216.21,83.61 L 215.34,82.81 L 214.54,82.04 L 213.8,81.32 L 213.11,80.69 L 212.45,80.17 L 211.79,79.76 L 211.13,79.48 L 210.49,79.19 L 209.88,78.88 L 209.31,78.56 L 208.75,78.23 L 208.22,77.87 L 207.71,77.5 L 207.21,77.11 L 206.73,76.7 L 206.25,76.26 L 205.79,75.8 L 205.33,75.32 L 204.88,74.8 L 204.43,74.26 L 203.99,73.69 L 203.55,73.08 L 203.12,72.45 L 202.69,71.78 L 202.25,71.08 L 201.82,70.34 L 201.39,69.58 L 200.96,68.78 L 200.53,67.94 L 200.09,67.08 L 199.66,66.18 L 199.22,65.25 L 198.77,64.29 L 198.33,63.29 L 197.87,62.27 L 197.41,61.21 L 196.94,60.13 L 196.46,59.01 L 195.97,57.87 L 195.19,56.12 L 194.53,54.94 L 193.84,53.75 L 193.12,52.54 L 192.38,51.31 L 191.61,50.08 L 190.81,48.83 L 189.99,47.57 L 189.13,46.31 L 188.24,45.04 L 187.32,43.77 L 186.37,42.49 L 185.38,41.21 L 184.35,39.94 L 183.29,38.67 L 182.2,37.41 L 181.06,36.15 L 179.89,34.9 L 178.68,33.66 L 177.42,32.44 L 176.12,31.23 L 174.79,30.04 L 173.4,28.86 L 171.97,27.71 L 170.5,26.58 L 168.98,25.48 L 167.42,24.4 L 165.8,23.35 L 164.14,22.33 L 162.43,21.34 L 160.67,20.39 L 158.87,19.47 L 157.01,18.6 L 155.1,17.76 L 153.13,16.97 L 151.12,16.21 L 149.05,15.51 L 146.93,14.85 L 144.76,14.24 L 142.54,13.68 L 140.26,13.18 L 137.92,12.73 L 135.53,12.33 L 133.09,11.99 L 130.58,11.71 L 128.02,11.49 L 125.41,11.33 L 122.73,11.23 L 120,11.2 L 117.27,11.23 L 114.59,11.33 L 111.98,11.49 L 109.42,11.71 L 106.91,11.99 L 104.47,12.33 L 102.08,12.73 L 99.74,13.18 L 97.46,13.68 L 95.24,14.24 L 93.07,14.85 L 90.95,15.51 L 88.88,16.21 L 86.87,16.97 L 84.9,17.76 L 82.99,18.6 L 81.13,19.47 L 79.33,20.39 L 77.57,21.34 L 75.86,22.33 L 74.2,23.35 L 72.58,24.4 L 71.02,25.48 L 69.5,26.58 L 68.03,27.71 L 66.6,28.86 L 65.21,30.04 L 63.88,31.23 L 62.58,32.44 L 61.32,33.66 L 60.11,34.9 L 58.94,36.15 L 57.8,37.41 L 56.71,38.67 L 55.65,39.94 L 54.62,41.21 L 53.63,42.49 L 52.68,43.77 L 51.76,45.04 L 50.87,46.31 L 50.01,47.57 L 49.19,48.83 L 48.39,50.08 L 47.62,51.31 L 46.88,52.54 L 46.16,53.75 L 45.47,54.94 L 44.53,56.69 L 44.03,57.87 L 43.54,59.01 L 43.06,60.13 L 42.59,61.21 L 42.13,62.27 L 41.67,63.29 L 41.23,64.29 L 40.78,65.25 L 40.34,66.18 L 39.91,67.08 L 39.47,67.94 L 39.04,68.78 L 38.61,69.58 L 38.18,70.34 L 37.75,71.08 L 37.31,71.78 L 36.88,72.45 L 36.45,73.08 L 36.01,73.69 L 35.57,74.26 L 35.12,74.8 L 34.67,75.32 L 34.21,75.8 L 33.75,76.26 L 33.27,76.7 L 32.79,77.11 L 32.29,77.5 L 31.78,77.87 L 31.25,78.23 L 30.69,78.56 L 30.12,78.88 L 29.51,79.19 L 28.87,79.48 L 28.21,79.76 L 27.55,80.17 L 26.89,80.69 L 26.2,81.32 L 25.46,82.04 L 24.66,82.81 L 23.79,83.61 L 22.84,84.42 L 21.81,85.21 L 20.7,85.95 L 19.5,86.62 L 18.23,87.18 L 16.89,87.62 L 15.47,87.9 L 14,88 Z" fill="url(#g)"/>
  </g>
</svg>