<svg xmlns="http://www.w3.org/2000/svg" viewBox="0 0 892.912373 328.304125" role="img" aria-label="Isotipo RENAS">
  <defs>
    <linearGradient id="renasGradient" x1="15%" y1="100%" x2="85%" y2="0%">
      <stop offset="0%" stop-color="#0FA978"/>
      <stop offset="55%" stop-color="#2FE0A8"/>
      <stop offset="100%" stop-color="#7CF5CE"/>
    </linearGradient>
  </defs>
  <g transform="translate(-181.087627,811.852410) scale(0.100000,-0.100000)"
  fill="url(#renasGradient)" stroke="none">
<path d="M6170 8109 c-356 -32 -701 -206 -1019 -514 -199 -193 -381 -427 -701
-905 -248 -370 -352 -513 -526 -720 -534 -639 -1154 -963 -1951 -1022 -221
-16 -218 -22 24 -57 475 -69 778 -73 1070 -16 557 108 1024 405 1420 902 98
123 248 332 418 583 331 488 476 674 656 844 224 211 477 326 718 326 152 0
353 -57 489 -138 253 -152 475 -405 892 -1017 379 -555 606 -829 855 -1028
348 -279 752 -449 1180 -497 227 -25 571 -8 879 45 82 14 153 25 158 25 4 0 8
4 8 9 0 5 -39 12 -87 15 -428 33 -730 109 -1058 265 -282 135 -565 343 -788
580 -219 234 -384 454 -792 1057 -211 312 -375 523 -535 688 -347 359 -697
543 -1095 576 -66 5 -122 9 -125 8 -3 0 -43 -4 -90 -9z"/>
  </g>
</svg>
