<svg xmlns="http://www.w3.org/2000/svg" viewBox="0 0 424.957225 361.043751" role="img" aria-label="Icono Kelva">
  <g transform="translate(-414.542775,808.700472) scale(0.100000,-0.100000)" fill="currentColor" stroke="none">
<path d="M6165 8084 c-75 -11 -176 -39 -240 -67 -145 -62 -174 -85 -624 -502
-114 -105 -386 -356 -606 -559 -464 -427 -490 -453 -524 -526 -22 -47 -26 -69
-26 -146 1 -82 4 -97 33 -157 36 -73 47 -84 1168 -1122 407 -378 410 -380 544
-444 133 -64 222 -84 375 -84 145 -1 218 13 341 64 160 67 119 31 1195 1029
228 212 455 422 505 468 l89 82 -280 -3 c-218 -4 -297 -8 -355 -22 -209 -47
-415 -136 -580 -247 -52 -36 -192 -138 -310 -227 -251 -189 -346 -241 -497
-273 -78 -16 -121 -19 -208 -15 -186 9 -296 51 -535 204 -238 151 -488 302
-751 451 -145 83 -277 161 -292 174 -36 30 -60 98 -51 146 11 62 41 100 104
132 159 80 600 342 935 554 105 66 224 137 265 158 230 115 517 109 750 -13
30 -16 159 -106 285 -201 369 -274 480 -340 695 -412 197 -65 276 -76 567 -76
l258 0 -70 63 c-123 110 -955 876 -1350 1242 -203 189 -319 261 -490 305 -77
20 -257 33 -320 24z"/>
  </g>
</svg>
