<svg xmlns="http://www.w3.org/2000/svg" viewBox="0 0 1352.87 400" role="img" aria-label="Kelva">
  <defs>
    <linearGradient id="kelvaGradient" x1="5%" y1="90%" x2="95%" y2="10%">
      <stop offset="0%" stop-color="#0FA978"/>
      <stop offset="55%" stop-color="#2FE0A8"/>
      <stop offset="100%" stop-color="#7CF5CE"/>
    </linearGradient>
  </defs>
  <g transform="translate(40.00,50.00) scale(0.830924)">
    <g transform="translate(-414.542775,808.700472) scale(0.100000,-0.100000)"
  fill="url(#kelvaGradient)" stroke="none">
<path d="M6165 8084 c-75 -11 -176 -39 -240 -67 -145 -62 -174 -85 -624 -502
-114 -105 -386 -356 -606 -559 -464 -427 -490 -453 -524 -526 -22 -47 -26 -69
-26 -146 1 -82 4 -97 33 -157 36 -73 47 -84 1168 -1122 407 -378 410 -380 544
-444 133 -64 222 -84 375 -84 145 -1 218 13 341 64 160 67 119 31 1195 1029
228 212 455 422 505 468 l89 82 -280 -3 c-218 -4 -297 -8 -355 -22 -209 -47
-415 -136 -580 -247 -52 -36 -192 -138 -310 -227 -251 -189 -346 -241 -497
-273 -78 -16 -121 -19 -208 -15 -186 9 -296 51 -535 204 -238 151 -488 302
-751 451 -145 83 -277 161 -292 174 -36 30 -60 98 -51 146 11 62 41 100 104
132 159 80 600 342 935 554 105 66 224 137 265 158 230 115 517 109 750 -13
30 -16 159 -106 285 -201 369 -274 480 -340 695 -412 197 -65 276 -76 567 -76
l258 0 -70 63 c-123 110 -955 876 -1350 1242 -203 189 -319 261 -490 305 -77
20 -257 33 -320 24z"/>
  </g>
  </g>
  <g transform="translate(463.11,90.00) scale(0.782918)">
    <g transform="translate(-54.000000,301.000000) scale(0.100000,-0.100000)"
fill="url(#kelvaGradient)" stroke="none">
<path d="M540 1610 l0 -1400 130 0 130 0 0 645 0 645 24 0 c18 0 185 -155 693
-645 l668 -644 183 -1 184 0 -99 94 c-54 51 -388 368 -743 705 -355 336 -645
615 -645 620 0 5 311 304 690 666 380 361 703 670 720 686 l30 29 -180 0 -181
0 -648 -630 c-491 -477 -654 -630 -672 -630 l-24 0 0 630 0 630 -130 0 -130 0
0 -1400z"/>
<path d="M2960 1610 l0 -1400 855 0 855 0 0 115 0 115 -725 0 -725 0 0 530 0
530 660 0 660 0 0 115 0 115 -660 0 -660 0 0 525 0 525 715 0 715 0 0 115 0
115 -845 0 -845 0 0 -1400z"/>
<path d="M5220 1610 l0 -1400 865 0 865 0 0 115 0 115 -735 0 -735 0 0 1285 0
1285 -130 0 -130 0 0 -1400z"/>
<path d="M6880 2923 c16 -49 212 -657 435 -1353 223 -696 413 -1286 421 -1312
l16 -48 228 0 229 0 26 83 c14 45 216 674 448 1397 l423 1315 -130 3 c-84 2
-132 -1 -136 -8 -4 -6 -193 -602 -421 -1325 -405 -1285 -415 -1315 -439 -1315
-24 0 -33 27 -390 1158 -200 636 -388 1232 -417 1325 l-54 167 -134 0 -134 0
29 -87z"/>
<path d="M10027 2993 c-10 -18 -907 -2765 -907 -2778 0 -13 22 -15 129 -15
l129 0 26 78 c13 42 68 211 121 375 l96 297 636 -2 637 -3 117 -364 c64 -199
121 -367 126 -372 13 -13 258 -7 257 6 -1 6 -206 634 -455 1397 l-454 1388
-227 0 c-125 0 -229 -3 -231 -7z m347 -435 c287 -884 444 -1373 442 -1375 -2
-2 -255 -2 -562 -1 l-560 3 228 705 c125 388 246 762 268 833 38 117 43 127
65 127 23 0 29 -16 119 -292z"/>
</g>
  </g>
</svg>
