<svg xmlns="http://www.w3.org/2000/svg" width="1200" height="630" viewBox="0 0 1200 630">
  <defs>
    <radialGradient id="glow" cx="75%" cy="20%" r="65%">
      <stop offset="0%" stop-color="#0a3b30"/>
      <stop offset="100%" stop-color="#090909"/>
    </radialGradient>
    <linearGradient id="brandGradient" x1="0%" y1="100%" x2="100%" y2="0%">
      <stop offset="0%" stop-color="#0FA978"/>
      <stop offset="100%" stop-color="#39E6B0"/>
    </linearGradient>
  </defs>
  <rect width="1200" height="630" fill="#090909"/>
  <rect width="1200" height="630" fill="url(#glow)"/>

  <!-- Isotipo RENAS (geometria oficial) -->
  <g transform="translate(108.77,46.37) scale(0.215)">
    <g transform="translate(-181.087627,811.852410) scale(0.100000,-0.100000)" fill="url(#brandGradient)" stroke="none">
<path d="M6170 8109 c-356 -32 -701 -206 -1019 -514 -199 -193 -381 -427 -701
-905 -248 -370 -352 -513 -526 -720 -534 -639 -1154 -963 -1951 -1022 -221
-16 -218 -22 24 -57 475 -69 778 -73 1070 -16 557 108 1024 405 1420 902 98
123 248 332 418 583 331 488 476 674 656 844 224 211 477 326 718 326 152 0
353 -57 489 -138 253 -152 475 -405 892 -1017 379 -555 606 -829 855 -1028
348 -279 752 -449 1180 -497 227 -25 571 -8 879 45 82 14 153 25 158 25 4 0 8
4 8 9 0 5 -39 12 -87 15 -428 33 -730 109 -1058 265 -282 135 -565 343 -788
580 -219 234 -384 454 -792 1057 -211 312 -375 523 -535 688 -347 359 -697
543 -1095 576 -66 5 -122 9 -125 8 -3 0 -43 -4 -90 -9z"/>
    </g>
  </g>

  <text x="120" y="250" font-family="Arial, sans-serif" font-size="72" font-weight="800" fill="#f5f5f5">RENAS</text>
  <text x="120" y="330" font-family="Arial, sans-serif" font-size="34" font-weight="700" fill="#17D79A">Sistemas que hacen crecer tu negocio</text>
  <text x="120" y="400" font-family="Arial, sans-serif" font-size="26" fill="#9ca3af">Sitios web · Chatbots con IA · Automatizaciones · Medellín, Colombia</text>

  <rect x="120" y="470" width="220" height="56" rx="28" fill="#17D79A"/>
  <text x="230" y="505" font-family="Arial, sans-serif" font-size="22" font-weight="700" fill="#04140f" text-anchor="middle">Ver el sitio</text>

  <text x="120" y="580" font-family="Arial, sans-serif" font-size="18" fill="#5c5c5c">Diseñado y construido por Juan Sebastián Henao Arenas</text>
</svg>
