<svg xmlns="http://www.w3.org/2000/svg" width="1200" height="630" viewBox="0 0 1200 630">
  <defs>
    <radialGradient id="glow" cx="75%" cy="20%" r="65%">
      <stop offset="0%" stop-color="#0a3b30"/>
      <stop offset="100%" stop-color="#090909"/>
    </radialGradient>
    <linearGradient id="brandGradient" x1="0%" y1="100%" x2="100%" y2="0%">
      <stop offset="0%" stop-color="#0FA978"/>
      <stop offset="100%" stop-color="#39E6B0"/>
    </linearGradient>
  </defs>
  <rect width="1200" height="630" fill="#090909"/>
  <rect width="1200" height="630" fill="url(#glow)"/>

  <!-- Isotipo Kelva (geometria oficial) -->
  <g transform="translate(108.77,46.37) scale(0.2492)">
    <g transform="translate(-414.542775,808.700472) scale(0.100000,-0.100000)" fill="url(#brandGradient)" stroke="none">
<path d="M6165 8084 c-75 -11 -176 -39 -240 -67 -145 -62 -174 -85 -624 -502
-114 -105 -386 -356 -606 -559 -464 -427 -490 -453 -524 -526 -22 -47 -26 -69
-26 -146 1 -82 4 -97 33 -157 36 -73 47 -84 1168 -1122 407 -378 410 -380 544
-444 133 -64 222 -84 375 -84 145 -1 218 13 341 64 160 67 119 31 1195 1029
228 212 455 422 505 468 l89 82 -280 -3 c-218 -4 -297 -8 -355 -22 -209 -47
-415 -136 -580 -247 -52 -36 -192 -138 -310 -227 -251 -189 -346 -241 -497
-273 -78 -16 -121 -19 -208 -15 -186 9 -296 51 -535 204 -238 151 -488 302
-751 451 -145 83 -277 161 -292 174 -36 30 -60 98 -51 146 11 62 41 100 104
132 159 80 600 342 935 554 105 66 224 137 265 158 230 115 517 109 750 -13
30 -16 159 -106 285 -201 369 -274 480 -340 695 -412 197 -65 276 -76 567 -76
l258 0 -70 63 c-123 110 -955 876 -1350 1242 -203 189 -319 261 -490 305 -77
20 -257 33 -320 24z"/>
    </g>
  </g>

  <text x="120" y="250" font-family="Arial, sans-serif" font-size="72" font-weight="800" fill="#f5f5f5">Kelva</text>
  <text x="120" y="330" font-family="Arial, sans-serif" font-size="34" font-weight="700" fill="#17D79A">Sistemas que hacen crecer tu negocio</text>
  <text x="120" y="400" font-family="Arial, sans-serif" font-size="26" fill="#9ca3af">Sitios web · Chatbots con IA · Automatizaciones · Medellín, Colombia</text>

  <rect x="120" y="470" width="220" height="56" rx="28" fill="#17D79A"/>
  <text x="230" y="505" font-family="Arial, sans-serif" font-size="22" font-weight="700" fill="#04140f" text-anchor="middle">Ver el sitio</text>

  <text x="120" y="580" font-family="Arial, sans-serif" font-size="18" fill="#5c5c5c">Diseñado y construido por Juan Sebastián Henao Arenas</text>
</svg>
